<?xml version="1.0" encoding="utf-8"?>
<!DOCTYPE svg PUBLIC "-//W3C//DTD SVG 1.1//EN" "http://www.w3.org/Graphics/SVG/1.1/DTD/svg11.dtd">
<svg version="1.1" id="Layer_1" xmlns="http://www.w3.org/2000/svg" xmlns:xlink="http://www.w3.org/1999/xlink" x="0px" y="0px"
	 width="15px" height="13px" viewBox="0 0 15 13" enable-background="new 0 0 15 13" xml:space="preserve">
<path fill="#FFFFFF" d="M0,6.99C0,7.55,0.45,8,1,8h12.98C14.53,7.99,15,7.56,15,7V6c0-0.56-0.45-1.01-1-1.01H1C0.45,4.99,0,5.44,0,6
	V6.99z"/>
<path fill="#FFFFFF" d="M8.07,12.66c0.39,0.39,0.95,0.46,1.26,0.15l5.48-5.48c0.31-0.31,0.24-0.87-0.15-1.26L13.99,5.4
	c-0.4-0.4-0.96-0.47-1.18-0.14l-5.48,5.48c-0.4,0.29-0.33,0.85,0.06,1.25L8.07,12.66z"/>
<path fill="#FFFFFF" d="M8.07,0.34c0.39-0.39,0.95-0.45,1.26-0.15l5.48,5.48c0.31,0.31,0.24,0.87-0.15,1.26L13.99,7.6
	c-0.4,0.4-0.96,0.47-1.18,0.14L7.33,2.26C6.94,1.97,7,1.41,7.39,1.02L8.07,0.34z"/>
</svg>
