<?xml version="1.0" encoding="utf-8"?>
<!DOCTYPE svg PUBLIC "-//W3C//DTD SVG 1.1//EN" "http://www.w3.org/Graphics/SVG/1.1/DTD/svg11.dtd">
<svg version="1.1" id="Search_Icon_Springboard" xmlns="http://www.w3.org/2000/svg" xmlns:xlink="http://www.w3.org/1999/xlink"
	 x="0px" y="0px" width="16px" height="17px" viewBox="0 0 16 17" enable-background="new 0 0 16 17" xml:space="preserve">
<rect x="11.69" y="9.7" transform="matrix(0.7064 -0.7078 0.7078 0.7064 -5.6218 12.918)" fill="#FFFFFF" width="2.14" height="7.07"/>
<path fill="#FFFFFF" d="M0,5.51c0,3.04,2.47,5.51,5.51,5.51c3.04,0,5.51-2.47,5.51-5.51C11.02,2.47,8.55,0,5.51,0
	C2.47,0,0,2.47,0,5.51z M5.53,1.5c2.2,0,3.99,1.79,3.99,3.99c0,2.2-1.79,3.99-3.99,3.99c-2.2,0-3.99-1.79-3.99-3.99
	C1.54,3.29,3.32,1.5,5.53,1.5z"/>
</svg>
