<?xml version="1.0" encoding="utf-8"?>
<!-- Generator: Adobe Illustrator 19.1.0, SVG Export Plug-In . SVG Version: 6.00 Build 0)  -->
<svg version="1.1" id="Layer_1" xmlns="http://www.w3.org/2000/svg" xmlns:xlink="http://www.w3.org/1999/xlink" x="0px" y="0px"
	 width="36px" height="70px" viewBox="-27 -19 36 70" style="enable-background:new -27 -19 36 70;" xml:space="preserve">
<style type="text/css">
	.st0{opacity:0.3;}
	.st1{fill:#FFFFFF;}
	.st2{fill:#828282;}
</style>
<g id="Tab_and_Shadow">
	<g id="Shadow">
		<g class="st0">
			<path d="M8.93-14.79L9-14.88c-0.98-0.15-0.06-0.15-1.07-0.15C-5.84-15.03-17-0.72-17,16.94S-5.84,48.91,7.92,48.91
				c0.34,0,0.67-0.02,1-0.03v-63.67H8.93z"/>
		</g>
	</g>
	<g id="Tab">
		<g>
			<path class="st1" d="M8.92-14.79L9-14.81c-0.98-0.15,0.94-0.22-0.07-0.22C-4.84-15.03-16-0.72-16,16.94
				c0,17.65,11.16,31.97,24.92,31.97V-14.79z"/>
		</g>
	</g>
</g>
<g id="Arrow_Hide">
	<path class="st2" d="M-2.14,34.67c-0.59,0.04-3.09-0.51-3.09-0.51c-0.56,0-1.02-0.46-1.02-1.02v-1.01l4.58-13.22v-1.57L-6.25,4.16
		V3.15c0-0.56,0.46-1.02,1.02-1.02c0,0,2.54-0.47,3.05-0.51c0.51-0.04,0.69,0.51,0.69,0.51l5.41,15.24v1.53l-5.36,15.21
		C-1.44,34.13-1.54,34.62-2.14,34.67z"/>
</g>
</svg>
