<?xml version="1.0" encoding="utf-8"?>
<!DOCTYPE svg PUBLIC "-//W3C//DTD SVG 1.1//EN" "http://www.w3.org/Graphics/SVG/1.1/DTD/svg11.dtd">
<svg version="1.1" id="HideTab_Default" xmlns="http://www.w3.org/2000/svg" xmlns:xlink="http://www.w3.org/1999/xlink" x="0px"
	 y="0px" width="36px" height="70px" viewBox="0 0 72 140" enable-background="new 0 0 72 140" xml:space="preserve">
<g>
	
		<image overflow="visible" opacity="0.3" width="445" height="574" xlink:href="6AF5750E3B6D8228.png"  transform="matrix(0.24 0 0 0.24 -49.5029 4.2612)">
	</image>
	<g>
		<path fill="#E2E2E5" d="M50.19,72.06c0,34.97-23.06,62.81-50.35,62.84c-24.49,0.02-44.35-28.35-44.35-63.32
			c0-34.97,19.85-62.31,44.35-62.32C28.38,9.25,50.19,37.09,50.19,72.06z"/>
	</g>
</g>
<path fill="#828282" d="M17.92,105.92c1.17,0.08,6.08-1,6.08-1c1.1,0,2-0.9,2-2.01v-1.99l-9-26v-3.08l9-25.92v-1.99
	c0-1.11-0.9-2.01-2-2.01c0,0-5-0.92-6-1s-1.36,1.01-1.36,1.01L6,71.92v3l10.54,29.93C16.54,104.85,16.75,105.83,17.92,105.92z"/>
</svg>
