<?xml version="1.0" encoding="utf-8"?>
<!DOCTYPE svg PUBLIC "-//W3C//DTD SVG 1.1//EN" "http://www.w3.org/Graphics/SVG/1.1/DTD/svg11.dtd">
<svg version="1.1" id="Selected_Radio" xmlns="http://www.w3.org/2000/svg" xmlns:xlink="http://www.w3.org/1999/xlink" x="0px"
	 y="0px" width="48px" height="48px" viewBox="0 0 48 48" enable-background="new 0 0 48 48" xml:space="preserve">
<circle opacity="0.6" fill="#9DD9FF" cx="24" cy="24" r="24"/>
<path fill="#0572CE" d="M34,24c0,5.52-4.48,10-10,10c-5.52,0-10-4.48-10-10c0-5.52,4.48-10,10-10C29.52,14,34,18.48,34,24z
	 M23.97,16.06c-4.4,0-7.97,3.58-7.97,8c0,4.42,3.57,8,7.97,8c4.4,0,7.97-3.58,7.97-8C31.94,19.64,28.37,16.06,23.97,16.06z"/>
<circle fill="#0572CE" cx="24" cy="24.06" r="5"/>
</svg>
