<?xml version="1.0" encoding="utf-8"?>
<!DOCTYPE svg PUBLIC "-//W3C//DTD SVG 1.1//EN" "http://www.w3.org/Graphics/SVG/1.1/DTD/svg11.dtd">
<svg version="1.1" id="Layer_1" xmlns="http://www.w3.org/2000/svg" xmlns:xlink="http://www.w3.org/1999/xlink" x="0px" y="0px"
	 width="44px" height="36px" viewBox="0 0 44 36" enable-background="new 0 0 44 36" xml:space="preserve">
<path id="Rounded_Square" fill="#FFFFFF" fill-opacity="0.7" stroke="#0572CE" stroke-width="0.9968" stroke-linejoin="round" stroke-miterlimit="10" d="
	M43,32.08c0,1.61-1.31,2.91-2.93,2.91H3.93c-1.62,0-2.93-1.3-2.93-2.91V3.9c0-1.61,1.31-2.91,2.93-2.91h36.14
	c1.62,0,2.93,1.3,2.93,2.91V32.08z"/>
<path id="Horizontal_Bar_Bottom" fill="#0572CE" fill-opacity="0.7" d="M38,17.89c0,1.09-0.88,1.97-1.97,1.99
	c-0.01,0-28.01,0-28.02,0c-1.1,0-2-0.89-2-1.99c0-1.1,0.9-1.99,2-1.99c0.01,0,28.02,0,28.03,0C37.13,15.93,38,16.81,38,17.89z"/>
<path id="Horizontal_Bar_Middle_1_" fill="#0572CE" fill-opacity="0.7" d="M38,25.84c0,1.09-0.88,1.97-1.97,1.99
	c-0.01,0-28.01,0-28.02,0c-1.1,0-2-0.89-2-1.99s0.9-1.99,2-1.99c0.01,0,28.02,0,28.03,0C37.13,23.88,38,24.76,38,25.84z"/>
<path id="Horizontal_Bar_Top_1_" fill="#0572CE" fill-opacity="0.7" d="M38,9.94c0,1.09-0.88,1.97-1.97,1.99
	c-0.01,0-28.01,0-28.02,0c-1.1,0-2-0.89-2-1.99c0-1.1,0.9-1.99,2-1.99c0.01,0,28.02,0,28.03,0C37.13,7.97,38,8.85,38,9.94z"/>
</svg>
